<svg width="16" height="17" viewBox="0 0 16 17" fill="none" xmlns="http://www.w3.org/2000/svg">
<path d="M7 10C7 11.1046 6.10457 12 5 12C3.89543 12 3 11.1046 3 10C3 8.89543 3.89543 8 5 8C6.10457 8 7 8.89543 7 10Z" fill="#232323"/>
<path fill-rule="evenodd" clip-rule="evenodd" d="M6 1C6 0.447715 5.55228 0 5 0C4.44771 0 4 0.447715 4 1H1C0.447715 1 0 1.44772 0 2V16C0 16.5523 0.447715 17 1 17H15C15.5523 17 16 16.5523 16 16V2C16 1.44772 15.5523 1 15 1H12C12 0.447715 11.5523 0 11 0C10.4477 0 10 0.447715 10 1H6ZM4 3C4 3.55228 4.44771 4 5 4C5.55228 4 6 3.55228 6 3H10C10 3.55228 10.4477 4 11 4C11.5523 4 12 3.55228 12 3H14V5H2V3H4ZM2 7H14V15H2V7Z" fill="#232323"/>
</svg>
