<svg width="20" height="20" viewBox="0 0 20 20" fill="none" xmlns="http://www.w3.org/2000/svg">
<g clip-path="url(#clip0_90_3622)">
<path fill-rule="evenodd" clip-rule="evenodd" d="M3.3499 4C2.54909 4 1.8999 4.64919 1.8999 5.45V14.55C1.8999 15.3508 2.54909 16 3.3499 16H16.6499C17.4507 16 18.0999 15.3508 18.0999 14.55V5.45C18.0999 4.64919 17.4507 4 16.6499 4H3.3499ZM-0.100098 5.45C-0.100098 3.54462 1.44452 2 3.3499 2H16.6499C18.5553 2 20.0999 3.54462 20.0999 5.45V14.55C20.0999 16.4554 18.5553 18 16.6499 18H3.3499C1.44452 18 -0.100098 16.4554 -0.100098 14.55V5.45Z" fill="#425EFF"/>
<path fill-rule="evenodd" clip-rule="evenodd" d="M19.0999 8.20001H0.899902V6.20001H19.0999V8.20001ZM3.3999 11.925C3.3999 11.3727 3.84762 10.925 4.3999 10.925H6.4999C7.05219 10.925 7.4999 11.3727 7.4999 11.925V12.8C7.4999 13.3523 7.05219 13.8 6.4999 13.8H4.3999C3.84762 13.8 3.3999 13.3523 3.3999 12.8V11.925Z" fill="#425EFF"/>
</g>
<defs>
<clipPath id="clip0_90_3622">
<rect width="20" height="20" fill="white"/>
</clipPath>
</defs>
</svg>
