<svg width="18" height="16" viewBox="0 0 18 16" fill="none" xmlns="http://www.w3.org/2000/svg">
<path fill-rule="evenodd" clip-rule="evenodd" d="M5.79664 1.76471V3.3737C5.79664 3.86101 5.40963 4.25606 4.93224 4.25606C4.45484 4.25606 4.06783 3.86101 4.06783 3.3737V1.7128C4.06783 1.25854 4.24462 0.822881 4.5593 0.501668C4.87397 0.180456 5.30077 0 5.74579 0H16.322C16.7671 0 17.1939 0.180455 17.5085 0.501668C17.8232 0.822882 18 1.25854 18 1.7128V9.18685C18 9.64111 17.8232 10.0768 17.5085 10.398C17.1939 10.7192 16.7671 10.8997 16.322 10.8997H15.5085C15.0311 10.8997 14.6441 10.5046 14.6441 10.0173C14.6441 9.52999 15.0311 9.13495 15.5085 9.13495H16.2712V1.76471H5.79664ZM1.72881 12.5086V14.1176H12.2034V12.5086V10.4844H1.72881V12.5086ZM1.72881 8.71972H12.2034V7.52595V6.7474H1.72881V7.52595V8.71972ZM0 7.52595V6.6955C0 5.74955 0.751249 4.9827 1.67796 4.9827H12.2542C13.1809 4.9827 13.9322 5.74955 13.9322 6.6955V7.52595V9.60207V12.5086V14.1695C13.9322 15.1155 13.1809 15.8824 12.2542 15.8824H1.67796C0.751249 15.8824 0 15.1155 0 14.1695V12.5086V9.60207V7.52595ZM3.71186 11.2111C3.23446 11.2111 2.84745 11.6061 2.84745 12.0934C2.84745 12.5807 3.23446 12.9758 3.71186 12.9758H6.96608C7.44348 12.9758 7.83049 12.5807 7.83049 12.0934C7.83049 11.6061 7.44348 11.2111 6.96608 11.2111H3.71186ZM9.40676 11.2111C8.92936 11.2111 8.54235 11.6061 8.54235 12.0934C8.54235 12.5807 8.92936 12.9758 9.40676 12.9758H10.2203C10.6977 12.9758 11.0847 12.5807 11.0847 12.0934C11.0847 11.6061 10.6977 11.2111 10.2203 11.2111H9.40676Z" fill="#6A6E85"/>
</svg>
