<svg width="19" height="20" viewBox="0 0 19 20" fill="none" xmlns="http://www.w3.org/2000/svg">
<path d="M1.44914 10.666L9.19848 2.91832C9.99012 2.1338 11.0603 1.69481 12.1748 1.69741C13.2893 1.7 14.3574 2.14398 15.1454 2.93217C15.9334 3.72037 16.377 4.7886 16.3793 5.90312C16.3816 7.01763 15.9423 8.08768 15.1576 8.87909L6.21809 17.8186C5.90016 18.1256 5.47434 18.2955 5.03234 18.2917C4.59035 18.2879 4.16754 18.1106 3.85499 17.798C3.54244 17.4855 3.36516 17.0627 3.36131 16.6207C3.35747 16.1787 3.52739 15.7529 3.83446 15.4349L12.7739 6.49377C12.9275 6.3348 13.0124 6.12189 13.0105 5.90089C13.0086 5.6799 12.9199 5.46849 12.7637 5.31222C12.6074 5.15594 12.396 5.0673 12.175 5.06538C11.954 5.06346 11.7411 5.14842 11.5821 5.30195L2.64095 14.2448C2.00877 14.8772 1.65371 15.7348 1.65387 16.629C1.65394 17.0718 1.74123 17.5102 1.91074 17.9192C2.08025 18.3283 2.32866 18.6999 2.6418 19.0129C2.95493 19.3259 3.32665 19.5742 3.73574 19.7436C4.14483 19.9129 4.58327 20.0001 5.02603 20C5.92022 19.9998 6.77773 19.6445 7.40991 19.0121L16.3494 10.0726C17.4559 8.96605 18.0776 7.46527 18.0776 5.90039C18.0776 4.33551 17.4559 2.83472 16.3494 1.72818C15.2429 0.621646 13.7421 0 12.1772 0C10.6123 0 9.11152 0.621646 8.00498 1.72818L0.257318 9.47416C0.176815 9.55191 0.112604 9.64491 0.0684296 9.74775C0.0242556 9.85058 0.00100434 9.96118 3.18243e-05 10.0731C-0.000940693 10.185 0.0203852 10.296 0.0627654 10.3996C0.105146 10.5032 0.167731 10.5973 0.246871 10.6764C0.32601 10.7556 0.420118 10.8181 0.523704 10.8605C0.627289 10.9029 0.738278 10.9242 0.850194 10.9233C0.962109 10.9223 1.07271 10.899 1.17554 10.8549C1.27838 10.8107 1.37138 10.7465 1.44914 10.666Z" fill="#6A6E85"/>
</svg>
