<svg width="20" height="20" viewBox="0 0 20 20" fill="none" xmlns="http://www.w3.org/2000/svg">
<path fill-rule="evenodd" clip-rule="evenodd" d="M9.99976 13C11.6566 13 12.9998 11.6569 12.9998 10C12.9998 8.34315 11.6566 7 9.99976 7C8.3429 7 6.99976 8.34315 6.99976 10C6.99976 11.6569 8.3429 13 9.99976 13ZM8.99976 10C8.99976 9.44771 9.44747 9 9.99976 9C10.552 9 10.9998 9.44771 10.9998 10C10.9998 10.5523 10.552 11 9.99976 11C9.44747 11 8.99976 10.5523 8.99976 10Z" fill="#6A6E85"/>
<path fill-rule="evenodd" clip-rule="evenodd" d="M4.20619 3.54967L6.20006 4.12004C6.39606 3.99313 6.5988 3.87574 6.80763 3.76855L7.3104 1.75746C7.42169 1.3123 7.82168 1 8.28054 1H11.719C12.1779 1 12.5778 1.3123 12.6891 1.75746L13.1919 3.76855C13.4007 3.87574 13.6035 3.99312 13.7995 4.12004L15.7933 3.54967C16.2345 3.42347 16.7049 3.61372 16.9344 4.01111L18.6536 6.98889C18.883 7.38628 18.8126 7.88883 18.4827 8.20779L16.9912 9.64996C16.9969 9.76592 16.9998 9.88262 16.9998 10C16.9998 10.1174 16.9969 10.2341 16.9912 10.35L18.4827 11.7922C18.8126 12.1112 18.883 12.6137 18.6536 13.0111L16.9344 15.9889C16.7049 16.3863 16.2345 16.5765 15.7933 16.4503L13.7995 15.88C13.6035 16.0069 13.4007 16.1243 13.1919 16.2314L12.6891 18.2425C12.5778 18.6877 12.1779 19 11.719 19H8.28054C7.82168 19 7.42169 18.6877 7.3104 18.2425L6.80763 16.2314C6.5988 16.1243 6.39605 16.0069 6.20006 15.88L4.20619 16.4503C3.76502 16.5765 3.29457 16.3863 3.06514 15.9889L1.34592 13.0111C1.11648 12.6137 1.18695 12.1112 1.51683 11.7922L3.00836 10.35C3.00265 10.2341 2.99977 10.1174 2.99977 10C2.99977 9.88263 3.00265 9.76593 3.00837 9.64997L1.51683 8.20779C1.18695 7.88882 1.11648 7.38628 1.34592 6.98889L3.06514 4.01111C3.29457 3.61372 3.76502 3.42347 4.20619 3.54967ZM10.9382 3L11.4716 5.13363L12.2786 5.54785C12.4276 5.62431 12.5723 5.70811 12.7124 5.79881L13.4755 6.29294L15.5927 5.68728L16.5312 7.31272L14.949 8.84255L14.9936 9.74833C14.9977 9.83155 14.9998 9.91545 14.9998 10C14.9998 10.0845 14.9977 10.1684 14.9936 10.2517L14.949 11.1575L16.5312 12.6873L15.5927 14.3127L13.4755 13.7071L12.7124 14.2012C12.5723 14.2919 12.4276 14.3757 12.2786 14.4522L11.4716 14.8664L10.9382 17H9.06132L8.52791 14.8664L7.72093 14.4522C7.57195 14.3757 7.42719 14.2919 7.28714 14.2012L6.52405 13.7071L4.4068 14.3127L3.46835 12.6873L5.05055 11.1574L5.00594 10.2517C5.00185 10.1684 4.99977 10.0846 4.99977 10C4.99977 9.91545 5.00185 9.83155 5.00594 9.74835L5.05055 8.84256L3.46836 7.31272L4.4068 5.68728L6.52405 6.29294L7.28714 5.79881C7.4272 5.70811 7.57196 5.62431 7.72093 5.54785L8.52791 5.13363L9.06132 3H10.9382Z" fill="#6A6E85"/>
</svg>
