<svg width="20" height="20" viewBox="0 0 20 20" fill="none" xmlns="http://www.w3.org/2000/svg">
<path d="M7.5 15.0001C7.04167 15.0001 6.64944 14.837 6.32333 14.5109C5.99667 14.1842 5.83333 13.7917 5.83333 13.3334V3.33341C5.83333 2.87508 5.99667 2.48258 6.32333 2.15591C6.64944 1.8298 7.04167 1.66675 7.5 1.66675H15C15.4583 1.66675 15.8508 1.8298 16.1775 2.15591C16.5036 2.48258 16.6667 2.87508 16.6667 3.33341V13.3334C16.6667 13.7917 16.5036 14.1842 16.1775 14.5109C15.8508 14.837 15.4583 15.0001 15 15.0001H7.5ZM7.5 13.3334H15V3.33341H7.5V13.3334ZM2.5 12.5001H4.16667V10.8334H2.5V12.5001ZM2.5 9.58341H4.16667V7.91675H2.5V9.58341ZM8.33333 18.3334H10V16.6667H8.33333V18.3334ZM2.5 15.4167H4.16667V13.7501H2.5V15.4167ZM4.16667 18.3334V16.6667H2.5C2.5 17.1251 2.66306 17.5176 2.98917 17.8442C3.31583 18.1704 3.70833 18.3334 4.16667 18.3334ZM5.41667 18.3334H7.08333V16.6667H5.41667V18.3334ZM11.25 18.3334C11.7083 18.3334 12.1008 18.1704 12.4275 17.8442C12.7536 17.5176 12.9167 17.1251 12.9167 16.6667H11.25V18.3334ZM2.5 6.66675H4.16667V5.00008C3.70833 5.00008 3.31583 5.16341 2.98917 5.49008C2.66306 5.81619 2.5 6.20841 2.5 6.66675Z" fill="#425EFF"/>
</svg>
