<svg width="18" height="18" viewBox="0 0 18 18" fill="none" xmlns="http://www.w3.org/2000/svg">
<path d="M9 9.73825C9.5092 9.73825 9.77914 9.40268 9.79755 8.83221L9.88957 6.18792C9.89571 6.12081 9.89571 6.04027 9.89571 5.98658C9.89571 5.36913 9.55215 5 9.00613 5C8.45399 5 8.10429 5.36913 8.10429 5.98658C8.10429 6.01193 8.10566 6.04326 8.10711 6.07634C8.10872 6.11328 8.11043 6.15254 8.11043 6.18792L8.20859 8.83221C8.22086 9.40268 8.4908 9.73825 9 9.73825Z" fill="#E54F3A"/>
<path d="M9 13C9.55828 13 10 12.5369 10 11.9463C10 11.3557 9.55828 10.8926 9 10.8926C8.44172 10.8926 8 11.3557 8 11.9463C8 12.5369 8.44172 13 9 13Z" fill="#E54F3A"/>
<path fill-rule="evenodd" clip-rule="evenodd" d="M9.70711 0.292893C9.31658 -0.0976311 8.68342 -0.0976311 8.29289 0.292893L0.292893 8.29289C-0.0976311 8.68342 -0.0976311 9.31658 0.292893 9.70711L8.29289 17.7071C8.68342 18.0976 9.31658 18.0976 9.70711 17.7071L17.7071 9.70711C18.0976 9.31658 18.0976 8.68342 17.7071 8.29289L9.70711 0.292893ZM9 15.5858L2.41421 9L9 2.41421L15.5858 9L9 15.5858Z" fill="#E54F3A"/>
</svg>
