<svg width="20" height="20" viewBox="0 0 20 20" fill="none" xmlns="http://www.w3.org/2000/svg">
<path d="M5 11.2501C5.69036 11.2501 6.25 10.6904 6.25 10.0001C6.25 9.30971 5.69036 8.75006 5 8.75006C4.30964 8.75006 3.75 9.30971 3.75 10.0001C3.75 10.6904 4.30964 11.2501 5 11.2501Z" fill="#6A6E85"/>
<path d="M10 11.2501C10.6904 11.2501 11.25 10.6904 11.25 10.0001C11.25 9.30971 10.6904 8.75006 10 8.75006C9.30964 8.75006 8.75 9.30971 8.75 10.0001C8.75 10.6904 9.30964 11.2501 10 11.2501Z" fill="#6A6E85"/>
<path d="M15 11.2501C15.6904 11.2501 16.25 10.6904 16.25 10.0001C16.25 9.30971 15.6904 8.75006 15 8.75006C14.3096 8.75006 13.75 9.30971 13.75 10.0001C13.75 10.6904 14.3096 11.2501 15 11.2501Z" fill="#6A6E85"/>
</svg>
