<?xml version="1.0" encoding="UTF-8" standalone="no"?>
<svg
   xmlns:dc="http://purl.org/dc/elements/1.1/"
   xmlns:cc="http://creativecommons.org/ns#"
   xmlns:rdf="http://www.w3.org/1999/02/22-rdf-syntax-ns#"
   xmlns:svg="http://www.w3.org/2000/svg"
   xmlns="http://www.w3.org/2000/svg"
   xmlns:sodipodi="http://sodipodi.sourceforge.net/DTD/sodipodi-0.dtd"
   xmlns:inkscape="http://www.inkscape.org/namespaces/inkscape"
   width="20"
   height="20"
   viewBox="0 0 20 20"
   fill="none"
   version="1.1"
   id="svg13"
   sodipodi:docname="home-gray.svg"
   inkscape:version="1.0.2-2 (e86c870879, 2021-01-15)">
  <metadata
     id="metadata17">
    <rdf:RDF>
      <cc:Work
         rdf:about="">
        <dc:format>image/svg+xml</dc:format>
        <dc:type
           rdf:resource="http://purl.org/dc/dcmitype/StillImage" />
      </cc:Work>
    </rdf:RDF>
  </metadata>
  <sodipodi:namedview
     pagecolor="#ffffff"
     bordercolor="#666666"
     borderopacity="1"
     objecttolerance="10"
     gridtolerance="10"
     guidetolerance="10"
     inkscape:pageopacity="0"
     inkscape:pageshadow="2"
     inkscape:window-width="1920"
     inkscape:window-height="1027"
     id="namedview15"
     showgrid="false"
     inkscape:zoom="43"
     inkscape:cx="10"
     inkscape:cy="10"
     inkscape:window-x="1912"
     inkscape:window-y="22"
     inkscape:window-maximized="1"
     inkscape:current-layer="g6" />
  <g
     clip-path="url(#clip0_274_7693)"
     id="g6">
    <path
       d="M13.8321 9.5547C14.1384 9.09517 14.0143 8.4743 13.5547 8.16795C13.0952 7.8616 12.4743 7.98577 12.168 8.4453L10.8446 10.4304L9.70715 9.29289C9.49531 9.08105 9.19964 8.97535 8.90151 9.00487C8.60337 9.03439 8.33418 9.19602 8.168 9.4453L6.168 12.4453C5.86164 12.9048 5.98582 13.5257 6.44535 13.8321C6.90487 14.1384 7.52574 14.0142 7.8321 13.5547L9.15547 11.5696L10.2929 12.7071C10.5048 12.919 10.8004 13.0247 11.0986 12.9951C11.3967 12.9656 11.6659 12.804 11.8321 12.5547L13.8321 9.5547Z"
       fill="#425EFF"
       id="path2"
       style="fill:#6a6e85;fill-opacity:1" />
    <path
       fill-rule="evenodd"
       clip-rule="evenodd"
       d="M9.38611 0.210648C9.74722 -0.0702159 10.2529 -0.0702159 10.614 0.210648L19.614 7.21065C20.0499 7.54972 20.1285 8.17799 19.7894 8.61394C19.4503 9.04989 18.8221 9.12842 18.3861 8.78935L18 8.48908V17C18 17.5523 17.5523 18 17 18H3.00005C2.44776 18 2.00005 17.5523 2.00005 17V8.48908L1.61399 8.78935C1.17804 9.12842 0.549764 9.04989 0.210694 8.61394C-0.128376 8.17799 -0.0498418 7.54972 0.386105 7.21065L9.38611 0.210648ZM10 2.26686L16 6.93353V16H4.00005V6.93353L10 2.26686Z"
       fill="#425EFF"
       id="path4"
       style="fill:#6a6e85;fill-opacity:1" />
  </g>
  <defs
     id="defs11">
    <clipPath
       id="clip0_274_7693">
      <rect
         width="20"
         height="20"
         fill="white"
         id="rect8" />
    </clipPath>
  </defs>
</svg>
