<svg width="36" height="36" viewBox="0 0 36 36" fill="none" xmlns="http://www.w3.org/2000/svg">
<path d="M25.875 34.3125C26.807 34.3125 27.5625 33.557 27.5625 32.625C27.5625 31.693 26.807 30.9375 25.875 30.9375C24.943 30.9375 24.1875 31.693 24.1875 32.625C24.1875 33.557 24.943 34.3125 25.875 34.3125Z" fill="#425EFF"/>
<path d="M33.75 34.3125C34.682 34.3125 35.4375 33.557 35.4375 32.625C35.4375 31.693 34.682 30.9375 33.75 30.9375C32.818 30.9375 32.0625 31.693 32.0625 32.625C32.0625 33.557 32.818 34.3125 33.75 34.3125Z" fill="#425EFF"/>
<path d="M18 34.3125C18.932 34.3125 19.6875 33.557 19.6875 32.625C19.6875 31.693 18.932 30.9375 18 30.9375C17.068 30.9375 16.3125 31.693 16.3125 32.625C16.3125 33.557 17.068 34.3125 18 34.3125Z" fill="#425EFF"/>
<path d="M25.875 26.4375C26.807 26.4375 27.5625 25.682 27.5625 24.75C27.5625 23.818 26.807 23.0625 25.875 23.0625C24.943 23.0625 24.1875 23.818 24.1875 24.75C24.1875 25.682 24.943 26.4375 25.875 26.4375Z" fill="#425EFF"/>
<path d="M33.75 26.4375C34.682 26.4375 35.4375 25.682 35.4375 24.75C35.4375 23.818 34.682 23.0625 33.75 23.0625C32.818 23.0625 32.0625 23.818 32.0625 24.75C32.0625 25.682 32.818 26.4375 33.75 26.4375Z" fill="#425EFF"/>
<path d="M25.875 18.5625C26.807 18.5625 27.5625 17.807 27.5625 16.875C27.5625 15.943 26.807 15.1875 25.875 15.1875C24.943 15.1875 24.1875 15.943 24.1875 16.875C24.1875 17.807 24.943 18.5625 25.875 18.5625Z" fill="#425EFF"/>
<path d="M33.75 18.5625C34.682 18.5625 35.4375 17.807 35.4375 16.875C35.4375 15.943 34.682 15.1875 33.75 15.1875C32.818 15.1875 32.0625 15.943 32.0625 16.875C32.0625 17.807 32.818 18.5625 33.75 18.5625Z" fill="#425EFF"/>
<path d="M4.5 7.875V11.8125H3.375C2.62908 11.8125 1.91371 12.1088 1.38626 12.6363C0.858816 13.1637 0.5625 13.8791 0.5625 14.625V24.1875C0.5625 24.9334 0.858816 25.6488 1.38626 26.1762C1.91371 26.7037 2.62908 27 3.375 27H18C18.7459 27 19.4613 26.7037 19.9887 26.1762C20.5162 25.6488 20.8125 24.9334 20.8125 24.1875V14.625C20.8125 13.8791 20.5162 13.1637 19.9887 12.6363C19.4613 12.1088 18.7459 11.8125 18 11.8125H16.875V7.875C16.875 6.23397 16.2231 4.66016 15.0627 3.49978C13.9023 2.3394 12.3285 1.6875 10.6875 1.6875C9.04647 1.6875 7.47266 2.3394 6.31228 3.49978C5.1519 4.66016 4.5 6.23397 4.5 7.875ZM17.4375 15.1875V23.625H3.9375V15.1875H17.4375ZM7.875 7.875C7.875 7.12908 8.17132 6.41371 8.69876 5.88626C9.22621 5.35882 9.94158 5.0625 10.6875 5.0625C11.4334 5.0625 12.1488 5.35882 12.6762 5.88626C13.2037 6.41371 13.5 7.12908 13.5 7.875V11.8125H7.875V7.875Z" fill="#425EFF"/>
</svg>
