<svg width="36" height="36" viewBox="0 0 36 36" fill="none" xmlns="http://www.w3.org/2000/svg">
<path d="M20.5655 14.1059C20.5655 15.1764 19.8947 16.0916 18.9474 16.4762V19.9474C18.9474 20.4684 18.5229 20.8947 18 20.8947C17.4771 20.8947 17.0526 20.4684 17.0526 19.9474V16.5065C16.0541 16.1465 15.336 15.2124 15.336 14.1059C15.336 12.6867 16.5069 11.5404 17.9526 11.5404C19.3945 11.5404 20.5655 12.6867 20.5655 14.1059ZM26.5263 11.4211V20.8947C26.5263 22.4617 25.2512 23.7368 23.6842 23.7368H12.3158C10.7488 23.7368 9.47368 22.4617 9.47368 20.8947V11.4211C9.47368 9.85411 10.7488 8.57895 12.3158 8.57895H13.2632V3.84211C13.2632 2.27516 14.5383 1 16.1053 1H19.8947C21.4617 1 22.7368 2.27516 22.7368 3.84211V8.57895H23.6842C25.2512 8.57895 26.5263 9.85411 26.5263 11.4211ZM15.1579 8.57895H20.8421V3.84211C20.8421 3.31916 20.4158 2.89474 19.8947 2.89474H16.1053C15.5842 2.89474 15.1579 3.31916 15.1579 3.84211V8.57895ZM24.6316 11.4211C24.6316 10.8981 24.2053 10.4737 23.6842 10.4737H22.7368H20.8421H15.1579H13.2632H12.3158C11.7947 10.4737 11.3684 10.8981 11.3684 11.4211V20.8947C11.3684 21.4158 11.7947 21.8421 12.3158 21.8421H23.6842C24.2053 21.8421 24.6316 21.4158 24.6316 20.8947V11.4211ZM8.75558 27.6893L7.416 26.3497L5.68421 28.0815V25.6316H3.78947V28.0815L2.05768 26.3497L0.718105 27.6893L2.4499 29.4211H0V31.3158H2.4499L0.716211 33.0476L2.05579 34.3872L3.78947 32.6554V35.1053H5.68421V32.6554L7.416 34.3872L8.75558 33.0476L7.02379 31.3158H9.47368V29.4211H7.02379L8.75558 27.6893ZM22.0187 27.6893L20.6792 26.3497L18.9474 28.0815V25.6316H17.0526V28.0815L15.3208 26.3497L13.9813 27.6893L15.7131 29.4211H13.2632V31.3158H15.7131L13.9794 33.0476L15.3189 34.3872L17.0526 32.6554V35.1053H18.9474V32.6554L20.6792 34.3872L22.0187 33.0476L20.2869 31.3158H22.7368V29.4211H20.2869L22.0187 27.6893ZM36 29.4211H33.5501L35.2819 27.6893L33.9423 26.3497L32.2105 28.0815V25.6316H30.3158V28.0815L28.584 26.3497L27.2444 27.6893L28.9762 29.4211H26.5263V31.3158H28.9762L27.2425 33.0476L28.5821 34.3872L30.3158 32.6554V35.1053H32.2105V32.6554L33.9423 34.3872L35.2819 33.0476L33.5501 31.3158H36V29.4211Z" fill="#425EFF"/>
</svg>
