<?xml version="1.0" encoding="UTF-8" standalone="no"?>
<svg
   xmlns:dc="http://purl.org/dc/elements/1.1/"
   xmlns:cc="http://creativecommons.org/ns#"
   xmlns:rdf="http://www.w3.org/1999/02/22-rdf-syntax-ns#"
   xmlns:svg="http://www.w3.org/2000/svg"
   xmlns="http://www.w3.org/2000/svg"
   xmlns:sodipodi="http://sodipodi.sourceforge.net/DTD/sodipodi-0.dtd"
   xmlns:inkscape="http://www.inkscape.org/namespaces/inkscape"
   width="20"
   height="20"
   viewBox="0 0 20 20"
   fill="none"
   version="1.1"
   id="svg4"
   sodipodi:docname="logout.svg"
   inkscape:version="1.0.2-2 (e86c870879, 2021-01-15)">
  <metadata
     id="metadata10">
    <rdf:RDF>
      <cc:Work
         rdf:about="">
        <dc:format>image/svg+xml</dc:format>
        <dc:type
           rdf:resource="http://purl.org/dc/dcmitype/StillImage" />
        <dc:title></dc:title>
      </cc:Work>
    </rdf:RDF>
  </metadata>
  <defs
     id="defs8" />
  <sodipodi:namedview
     pagecolor="#ffffff"
     bordercolor="#666666"
     borderopacity="1"
     objecttolerance="10"
     gridtolerance="10"
     guidetolerance="10"
     inkscape:pageopacity="0"
     inkscape:pageshadow="2"
     inkscape:window-width="1920"
     inkscape:window-height="1027"
     id="namedview6"
     showgrid="false"
     inkscape:zoom="7.6013979"
     inkscape:cx="-14.791785"
     inkscape:cy="7.9417969"
     inkscape:window-x="1912"
     inkscape:window-y="22"
     inkscape:window-maximized="1"
     inkscape:current-layer="svg4" />
  <path
     fill-rule="evenodd"
     clip-rule="evenodd"
     d="M3.94804 2.28105C4.44814 1.78095 5.12642 1.5 5.83366 1.5H12.5003C13.0526 1.5 13.5003 1.94772 13.5003 2.5C13.5003 3.05228 13.0526 3.5 12.5003 3.5H5.83366C5.65685 3.5 5.48728 3.57024 5.36225 3.69526C5.23723 3.82029 5.16699 3.98986 5.16699 4.16667V15.8333C5.16699 16.0101 5.23723 16.1797 5.36225 16.3047C5.48728 16.4298 5.65685 16.5 5.83366 16.5H12.5003C13.0526 16.5 13.5003 16.9477 13.5003 17.5C13.5003 18.0523 13.0526 18.5 12.5003 18.5H5.83366C5.12641 18.5 4.44814 18.219 3.94804 17.719C3.44794 17.2189 3.16699 16.5406 3.16699 15.8333V4.16667C3.16699 3.45942 3.44794 2.78115 3.94804 2.28105ZM11.7932 7.37377C11.4027 6.98325 11.4027 6.35008 11.7932 5.95956C12.1837 5.56904 12.8169 5.56904 13.2074 5.95956L16.5408 9.29289C16.7283 9.48043 16.8337 9.73478 16.8337 10C16.8337 10.2652 16.7283 10.5196 16.5408 10.7071L13.2074 14.0404C12.8169 14.431 12.1837 14.431 11.7932 14.0404C11.4027 13.6499 11.4027 13.0168 11.7932 12.6262L13.4194 11H7.50033C6.94804 11 6.50033 10.5523 6.50033 10C6.50033 9.44772 6.94804 9 7.50033 9H13.4194L11.7932 7.37377Z"
     fill="#6A6E85"
     id="path2"
     style="fill:#425eff;fill-opacity:1" />
</svg>
