<svg width="26" height="16" viewBox="0 0 26 16" fill="none" xmlns="http://www.w3.org/2000/svg">
<g clip-path="url(#clip0_154_6128)">
<path d="M9.38867 1.70093H16.3472V14.2042H9.38867V1.70093Z" fill="#FF5F00"/>
<path d="M9.83034 7.9526C9.83034 5.41223 11.0232 3.15894 12.8567 1.70093C11.5092 0.640604 9.8083 0 7.9527 0C3.55653 0 0 3.55653 0 7.9526C0 12.3486 3.55653 15.9052 7.9526 15.9052C9.8082 15.9052 11.5091 15.2646 12.8567 14.2042C11.0232 12.7683 9.83034 10.493 9.83034 7.9526Z" fill="#EB001B"/>
<path d="M25.7356 7.9526C25.7356 12.3486 22.179 15.9052 17.783 15.9052C15.9274 15.9052 14.2264 15.2646 12.8789 14.2042C14.7345 12.7463 15.9053 10.493 15.9053 7.9526C15.9053 5.41223 14.7124 3.15894 12.8789 1.70093C14.2263 0.640604 15.9274 0 17.783 0C22.179 0 25.7356 3.57867 25.7356 7.9526Z" fill="#F79E1B"/>
</g>
<defs>
<clipPath id="clip0_154_6128">
<rect width="25.761" height="16" fill="white"/>
</clipPath>
</defs>
</svg>
