<svg width="13" height="13" viewBox="0 0 10 10" fill="none" xmlns="http://www.w3.org/2000/svg">
<path d="M7.22861 9.16262C7.34923 9.042 7.42312 8.87438 7.42288 8.6903L7.42288 8.60927C7.42288 8.24064 7.12445 7.94221 6.75629 7.94268L3.11395 7.94268L9.27536 1.78127C9.53557 1.52106 9.53557 1.09868 9.27536 0.838465C9.01514 0.57825 8.59276 0.57825 8.33255 0.838465L2.17114 6.99987L2.17114 3.35753C2.17114 2.98889 1.87271 2.69047 1.50455 2.69094L1.42352 2.69094C1.05489 2.69094 0.756458 2.98937 0.756929 3.35753L0.756928 8.6903C0.756929 9.05893 1.05536 9.35736 1.42352 9.35689L6.75629 9.35689C6.94061 9.35689 7.10799 9.28324 7.22861 9.16262Z" fill="#E54F3A"/>
</svg>
