<?xml version="1.0" encoding="UTF-8" standalone="no"?>
<svg
   xmlns:dc="http://purl.org/dc/elements/1.1/"
   xmlns:cc="http://creativecommons.org/ns#"
   xmlns:rdf="http://www.w3.org/1999/02/22-rdf-syntax-ns#"
   xmlns:svg="http://www.w3.org/2000/svg"
   xmlns="http://www.w3.org/2000/svg"
   xmlns:sodipodi="http://sodipodi.sourceforge.net/DTD/sodipodi-0.dtd"
   xmlns:inkscape="http://www.inkscape.org/namespaces/inkscape"
   width="20"
   height="20"
   viewBox="0 0 20 20"
   fill="none"
   version="1.1"
   id="svg27"
   sodipodi:docname="noun-bulb-money.svg"
   inkscape:version="1.0.2-2 (e86c870879, 2021-01-15)">
  <metadata
     id="metadata31">
    <rdf:RDF>
      <cc:Work
         rdf:about="">
        <dc:format>image/svg+xml</dc:format>
        <dc:type
           rdf:resource="http://purl.org/dc/dcmitype/StillImage" />
        <dc:title></dc:title>
      </cc:Work>
    </rdf:RDF>
  </metadata>
  <sodipodi:namedview
     pagecolor="#ffffff"
     bordercolor="#666666"
     borderopacity="1"
     objecttolerance="10"
     gridtolerance="10"
     guidetolerance="10"
     inkscape:pageopacity="0"
     inkscape:pageshadow="2"
     inkscape:window-width="1920"
     inkscape:window-height="1027"
     id="namedview29"
     showgrid="false"
     inkscape:zoom="21.5"
     inkscape:cx="9.6329423"
     inkscape:cy="11.540154"
     inkscape:window-x="1912"
     inkscape:window-y="22"
     inkscape:window-maximized="1"
     inkscape:current-layer="g20" />
  <g
     clip-path="url(#clip0_274_7711)"
     id="g20">
    <path
       d="M9.99986 3.57141C6.45486 3.57141 3.57129 6.45546 3.57129 9.99998C3.57129 12.1421 4.65605 14.1512 6.42843 15.3393V17.8571C6.42843 19.0388 7.38962 20 8.57129 20H11.4284C12.6101 20 13.5713 19.0388 13.5713 17.8571V15.3393C15.3437 14.1512 16.4284 12.1421 16.4284 9.99998C16.4284 6.45546 13.5449 3.57141 9.99986 3.57141ZM11.4284 18.5714H8.57129C8.17724 18.5714 7.857 18.2509 7.857 17.8571V17.1428H12.1427V17.8571C12.1427 18.2509 11.8225 18.5714 11.4284 18.5714ZM12.4991 14.3255C12.2787 14.4531 12.1427 14.6886 12.1427 14.9436V15.7143H7.857V14.9436C7.857 14.6886 7.72105 14.4531 7.50057 14.3255C5.95819 13.4319 4.99986 11.7743 4.99986 9.99998C4.99986 7.24284 7.24319 4.99998 9.99986 4.99998C12.7565 4.99998 14.9999 7.24284 14.9999 9.99998C14.9999 11.7743 14.0415 13.4319 12.4991 14.3255Z"
       fill="#6A6E85"
       id="path2"
       style="fill:#425eff;fill-opacity:1" />
    <path
       d="M9.28613 2.14286V0.714286C9.28613 0.319762 9.60566 0 10.0004 0C10.3952 0 10.7147 0.319762 10.7147 0.714286V2.14286C10.7147 2.53738 10.3952 2.85714 10.0004 2.85714C9.60566 2.85714 9.28613 2.53738 9.28613 2.14286Z"
       fill="#6A6E85"
       id="path4"
       style="fill:#425eff;fill-opacity:1" />
    <path
       d="M2.92901 3.93907C2.64996 3.66003 2.64996 3.20812 2.92901 2.92907C3.20806 2.65003 3.65996 2.65003 3.93901 2.92907L4.94901 3.93907C5.22806 4.21812 5.22806 4.67003 4.94901 4.94907C4.66996 5.22812 4.21806 5.22812 3.93901 4.94907L2.92901 3.93907Z"
       fill="#6A6E85"
       id="path6"
       style="fill:#425eff;fill-opacity:1" />
    <path
       d="M17.0711 16.061C17.3501 16.34 17.3501 16.7919 17.0711 17.071C16.792 17.35 16.3401 17.35 16.0611 17.071L15.0511 16.061C14.772 15.7819 14.772 15.33 15.0511 15.051C15.3301 14.7719 15.782 14.7719 16.0611 15.051L17.0711 16.061Z"
       fill="#6A6E85"
       id="path8"
       style="fill:#425eff;fill-opacity:1" />
    <path
       d="M2.85714 9.99999C2.85714 10.3945 2.53762 10.7143 2.14286 10.7143H0.714286C0.319524 10.7143 0 10.3945 0 9.99999C0 9.60547 0.319524 9.28571 0.714286 9.28571H2.14286C2.53762 9.28571 2.85714 9.60547 2.85714 9.99999Z"
       fill="#6A6E85"
       id="path10"
       style="fill:#425eff;fill-opacity:1" />
    <path
       d="M19.9997 9.99999C19.9997 10.3945 19.6802 10.7143 19.2854 10.7143H17.8569C17.4621 10.7143 17.1426 10.3945 17.1426 9.99999C17.1426 9.60547 17.4621 9.28571 17.8569 9.28571H19.2854C19.6802 9.28571 19.9997 9.60547 19.9997 9.99999Z"
       fill="#6A6E85"
       id="path12"
       style="fill:#425eff;fill-opacity:1" />
    <path
       d="M4.94901 15.051C5.22806 15.33 5.22806 15.7819 4.94901 16.061L3.93901 17.071C3.65996 17.35 3.20806 17.35 2.92901 17.071C2.64996 16.7919 2.64996 16.34 2.92901 16.061L3.93901 15.051C4.21806 14.7719 4.66996 14.7719 4.94901 15.051Z"
       fill="#6A6E85"
       id="path14"
       style="fill:#425eff;fill-opacity:1" />
    <path
       d="M15.0511 4.94907C14.772 4.67003 14.772 4.21812 15.0511 3.93907L16.0611 2.92907C16.3401 2.65003 16.792 2.65003 17.0711 2.92907C17.3501 3.20812 17.3501 3.66003 17.0711 3.93907L16.0611 4.94907C15.782 5.22812 15.3301 5.22812 15.0511 4.94907Z"
       fill="#6A6E85"
       id="path16"
       style="fill:#425eff;fill-opacity:1" />
    <path
       d="M9.28599 8.57145V9.28573H11.0717C11.6624 9.28573 12.1431 9.76645 12.1431 10.3572V11.7857C12.1431 12.3764 11.6624 12.8572 11.0717 12.8572H10.7146V13.5714H9.28599V12.8572H8.57171C8.17695 12.8572 7.85742 12.5374 7.85742 12.1429C7.85742 11.7484 8.17695 11.4286 8.57171 11.4286H10.7146V10.7143H8.92885C8.33814 10.7143 7.85742 10.2336 7.85742 9.64287V8.2143C7.85742 7.62359 8.33814 7.14287 8.92885 7.14287H9.28599V6.42859H10.7146V7.14287H11.4289C11.8236 7.14287 12.1431 7.46264 12.1431 7.85716C12.1431 8.25168 11.8236 8.57145 11.4289 8.57145H9.28599Z"
       fill="#6A6E85"
       id="path18"
       style="fill:#425eff;fill-opacity:1" />
  </g>
  <defs
     id="defs25">
    <clipPath
       id="clip0_274_7711">
      <rect
         width="20"
         height="20"
         fill="white"
         id="rect22" />
    </clipPath>
  </defs>
</svg>
