<svg width="20" height="20" viewBox="0 0 20 20" fill="none" xmlns="http://www.w3.org/2000/svg">
<path fill-rule="evenodd" clip-rule="evenodd" d="M14.2929 1.29289C14.6834 0.902369 15.3166 0.902369 15.7071 1.29289L18.7071 4.29289C19.0977 4.68342 19.0977 5.31658 18.7071 5.70711L6.70713 17.7071C6.57897 17.8353 6.41839 17.9262 6.24256 17.9701L2.24256 18.9701C1.90178 19.0553 1.54129 18.9555 1.29291 18.7071C1.04453 18.4587 0.944685 18.0982 1.02988 17.7575L2.02988 13.7575C2.07384 13.5816 2.16476 13.4211 2.29291 13.2929L11.2926 4.29317L14.2929 1.29289ZM12 6.41421L5.41423 13L7.00002 14.5858L13.5858 8L12 6.41421ZM15 6.58579L13.4142 5L15 3.41421L16.5858 5L15 6.58579ZM5.58581 16L4.00002 14.4142L3.90299 14.5112L3.37439 16.6256L5.48877 16.097L5.58581 16Z" fill="#6A6E85"/>
</svg>
