<svg width="12" height="12" viewBox="0 0 12 12" fill="none" xmlns="http://www.w3.org/2000/svg">
<path d="M11.8173 10.4844C11.0675 9.16842 9.89672 8.14306 8.49339 7.57335C9.19125 7.04996 9.70674 6.32026 9.96684 5.48761C10.2269 4.65497 10.2185 3.76159 9.94261 2.93403C9.66675 2.10647 9.13751 1.38668 8.42984 0.876627C7.72218 0.36657 6.87197 0.0921021 5.99964 0.0921021C5.12732 0.0921021 4.27711 0.36657 3.56944 0.876627C2.86177 1.38668 2.33253 2.10647 2.05668 2.93403C1.78082 3.76159 1.77235 4.65497 2.03245 5.48761C2.29254 6.32026 2.80803 7.04996 3.50589 7.57335C2.10257 8.14306 0.931776 9.16842 0.181986 10.4844C0.135527 10.5591 0.104562 10.6424 0.0909319 10.7293C0.0773021 10.8162 0.0812859 10.9049 0.102646 10.9903C0.124007 11.0756 0.162308 11.1558 0.215273 11.226C0.268239 11.2963 0.334786 11.3552 0.41096 11.3992C0.487134 11.4432 0.571378 11.4714 0.658686 11.4822C0.745994 11.493 0.834582 11.4862 0.919184 11.462C1.00379 11.4379 1.08268 11.397 1.15116 11.3418C1.21965 11.2866 1.27633 11.2182 1.31785 11.1406C2.30878 9.4278 4.05878 8.40624 5.99964 8.40624C7.9405 8.40624 9.6905 9.42835 10.6814 11.1406C10.7714 11.2853 10.9141 11.3893 11.0794 11.4307C11.2446 11.472 11.4195 11.4475 11.567 11.3623C11.7145 11.277 11.8231 11.1378 11.8698 10.974C11.9165 10.8101 11.8977 10.6346 11.8173 10.4844ZM3.15589 4.24999C3.15589 3.68755 3.32268 3.13774 3.63515 2.67009C3.94763 2.20244 4.39176 1.83795 4.91139 1.62271C5.43101 1.40747 6.0028 1.35116 6.55443 1.46088C7.10606 1.57061 7.61277 1.84145 8.01048 2.23916C8.40818 2.63686 8.67902 3.14357 8.78875 3.6952C8.89848 4.24684 8.84216 4.81862 8.62692 5.33825C8.41169 5.85787 8.0472 6.30201 7.57955 6.61448C7.11189 6.92696 6.56208 7.09374 5.99964 7.09374C5.2457 7.09287 4.52289 6.79299 3.98977 6.25987C3.45665 5.72675 3.15676 5.00393 3.15589 4.24999Z" fill="#425EFF"/>
</svg>
