<svg width="18" height="15" viewBox="0 0 18 15" fill="none" xmlns="http://www.w3.org/2000/svg">
<path fill-rule="evenodd" clip-rule="evenodd" d="M6.5 2.16663C5.88116 2.16663 5.28767 2.41246 4.85008 2.85004C4.4125 3.28763 4.16667 3.88112 4.16667 4.49996C4.16667 5.1188 4.4125 5.71229 4.85008 6.14988C5.28767 6.58746 5.88116 6.83329 6.5 6.83329C7.11884 6.83329 7.71233 6.58746 8.14992 6.14988C8.5875 5.71229 8.83333 5.1188 8.83333 4.49996C8.83333 3.88112 8.5875 3.28763 8.14992 2.85004C7.71233 2.41246 7.11884 2.16663 6.5 2.16663ZM3.43587 1.43583C4.24853 0.623172 5.35073 0.166626 6.5 0.166626C7.64927 0.166626 8.75147 0.623172 9.56413 1.43583C10.3768 2.24849 10.8333 3.35069 10.8333 4.49996C10.8333 5.64923 10.3768 6.75143 9.56413 7.56409C8.75147 8.37675 7.64927 8.83329 6.5 8.83329C5.35073 8.83329 4.24853 8.37675 3.43587 7.56409C2.62321 6.75143 2.16667 5.64923 2.16667 4.49996C2.16667 3.35069 2.62321 2.24849 3.43587 1.43583ZM10.5 1.16663C10.5 0.614341 10.9477 0.166626 11.5 0.166626C12.6493 0.166626 13.7515 0.623172 14.5641 1.43583C15.3768 2.24849 15.8333 3.35069 15.8333 4.49996C15.8333 5.64923 15.3768 6.75143 14.5641 7.56409C13.7515 8.37675 12.6493 8.83329 11.5 8.83329C10.9477 8.83329 10.5 8.38558 10.5 7.83329C10.5 7.28101 10.9477 6.83329 11.5 6.83329C12.1188 6.83329 12.7123 6.58746 13.1499 6.14988C13.5875 5.71229 13.8333 5.1188 13.8333 4.49996C13.8333 3.88112 13.5875 3.28763 13.1499 2.85004C12.7123 2.41246 12.1188 2.16663 11.5 2.16663C10.9477 2.16663 10.5 1.71891 10.5 1.16663ZM2.40972 10.4773C3.50035 9.75025 4.94939 9.33329 6.5 9.33329C8.05061 9.33329 9.49965 9.75025 10.5903 10.4773C11.674 11.1997 12.5 12.3075 12.5 13.6666C12.5 14.2189 12.0523 14.6666 11.5 14.6666C10.9477 14.6666 10.5 14.2189 10.5 13.6666C10.5 13.1841 10.2068 12.6253 9.48097 12.1414C8.76201 11.6622 7.71106 11.3333 6.5 11.3333C5.28894 11.3333 4.23799 11.6622 3.51903 12.1414C2.79318 12.6253 2.5 13.1841 2.5 13.6666C2.5 14.2189 2.05228 14.6666 1.5 14.6666C0.947715 14.6666 0.5 14.2189 0.5 13.6666C0.5 12.3075 1.32598 11.1997 2.40972 10.4773ZM12.1934 10.2927C12.3203 9.75521 12.8589 9.42233 13.3964 9.54921C15.5109 10.0483 17.5 11.5158 17.5 13.6666C17.5 14.2189 17.0523 14.6666 16.5 14.6666C15.9477 14.6666 15.5 14.2189 15.5 13.6666C15.5 12.9141 14.7057 11.9132 12.9369 11.4957C12.3994 11.3688 12.0665 10.8302 12.1934 10.2927Z" fill="#6A6E85"/>
</svg>
