<svg width="18" height="13" viewBox="0 0 18 13" fill="none" xmlns="http://www.w3.org/2000/svg">
<path d="M0.666016 1.58331C0.666016 1.25179 0.797712 0.93385 1.03213 0.699429C1.26655 0.465009 1.5845 0.333313 1.91602 0.333313H16.0827C16.4142 0.333313 16.7321 0.465009 16.9666 0.699429C17.201 0.93385 17.3327 1.25179 17.3327 1.58331C17.3327 1.91483 17.201 2.23278 16.9666 2.4672C16.7321 2.70162 16.4142 2.83331 16.0827 2.83331H1.91602C1.5845 2.83331 1.26655 2.70162 1.03213 2.4672C0.797712 2.23278 0.666016 1.91483 0.666016 1.58331ZM3.99935 6.58331C3.99935 6.25179 4.13104 5.93385 4.36547 5.69943C4.59989 5.46501 4.91783 5.33331 5.24935 5.33331H12.7493C13.0809 5.33331 13.3988 5.46501 13.6332 5.69943C13.8677 5.93385 13.9993 6.25179 13.9993 6.58331C13.9993 6.91483 13.8677 7.23278 13.6332 7.4672C13.3988 7.70162 13.0809 7.83331 12.7493 7.83331H5.24935C4.91783 7.83331 4.59989 7.70162 4.36547 7.4672C4.13104 7.23278 3.99935 6.91483 3.99935 6.58331ZM7.74935 10.3333C7.41783 10.3333 7.09989 10.465 6.86547 10.6994C6.63104 10.9339 6.49935 11.2518 6.49935 11.5833C6.49935 11.9148 6.63104 12.2328 6.86547 12.4672C7.09989 12.7016 7.41783 12.8333 7.74935 12.8333H10.2493C10.5809 12.8333 10.8988 12.7016 11.1332 12.4672C11.3677 12.2328 11.4993 11.9148 11.4993 11.5833C11.4993 11.2518 11.3677 10.9339 11.1332 10.6994C10.8988 10.465 10.5809 10.3333 10.2493 10.3333H7.74935Z" fill="#425EFF"/>
</svg>
