<svg width="24" height="24" viewBox="0 0 20 20" fill="none" xmlns="http://www.w3.org/2000/svg">
<path d="M10 8C11.1046 8 12 8.89543 12 10C12 11.1046 11.1046 12 10 12C8.89543 12 8 11.1046 8 10C8 8.89543 8.89543 8 10 8Z" fill="#425EFF"/>
<path fill-rule="evenodd" clip-rule="evenodd" d="M8 1C7.44772 1 7 1.44772 7 2V4H4C3.44772 4 3 4.44772 3 5C3 5.55228 3.44772 6 4 6H4.07397L5.00295 18.0767C5.04302 18.5977 5.47746 19 6 19H14C14.5225 19 14.957 18.5977 14.9971 18.0767L15.926 6H16C16.5523 6 17 5.55228 17 5C17 4.44772 16.5523 4 16 4H13V2C13 1.44772 12.5523 1 12 1H8ZM11 4V3H9V4H11ZM13.9201 6H6.07988L6.92603 17H13.074L13.9201 6Z" fill="#425EFF"/>
</svg>
