<svg width="20" height="20" viewBox="0 0 20 20" fill="none" xmlns="http://www.w3.org/2000/svg">
<path fill-rule="evenodd" clip-rule="evenodd" d="M13.4964 15.6178C12.215 16.4901 10.6671 17 9 17C4.58172 17 1 13.4183 1 9C1 4.58172 4.58172 1 9 1C13.4183 1 17 4.58172 17 9C17 10.6671 16.4901 12.215 15.6178 13.4964L19.5607 17.4393C20.1464 18.0251 20.1464 18.9749 19.5607 19.5607C18.9749 20.1464 18.0251 20.1464 17.4393 19.5607L13.4964 15.6178ZM15 9C15 12.3137 12.3137 15 9 15C5.68629 15 3 12.3137 3 9C3 5.68629 5.68629 3 9 3C12.3137 3 15 5.68629 15 9Z" fill="#9DA0AF"/>
</svg>