<svg width="13" height="13" viewBox="0 0 10 10" fill="none" xmlns="http://www.w3.org/2000/svg">
<path d="M2.77139 0.837378C2.65077 0.957998 2.57688 1.12562 2.57712 1.3097L2.57712 1.39073C2.57712 1.75936 2.87555 2.05779 3.24371 2.05732L6.88605 2.05732L0.724645 8.21873C0.464429 8.47894 0.464429 8.90132 0.724645 9.16153C0.98486 9.42175 1.40724 9.42175 1.66745 9.16153L7.82886 3.00013V6.64247C7.82886 7.0111 8.12729 7.30953 8.49545 7.30906L8.57648 7.30906C8.94511 7.30906 9.24354 7.01063 9.24307 6.64247L9.24307 1.3097C9.24307 0.941065 8.94464 0.642637 8.57648 0.643108L3.24371 0.643108C3.05939 0.643108 2.89201 0.716757 2.77139 0.837378Z" fill="#4F9F2A"/>
</svg>
