<svg width="20" height="20" viewBox="0 0 20 20" fill="none" xmlns="http://www.w3.org/2000/svg">
<path d="M14.6585 3.24744C14.2429 2.88375 13.6111 2.92587 13.2475 3.34151C12.8838 3.75715 12.9259 4.38891 13.3415 4.75259L15.3386 6.50001H2.00004C1.44776 6.50001 1.00004 6.94773 1.00004 7.50001C1.00004 8.0523 1.44776 8.50001 2.00004 8.50001H18C18.4167 8.50001 18.7896 8.24173 18.9361 7.85174C19.0827 7.46175 18.9721 7.02178 18.6586 6.74744L14.6585 3.24744Z" fill="#6A6E85"/>
<path d="M5.34154 16.7526C5.75718 17.1163 6.38894 17.0742 6.75262 16.6585C7.1163 16.2429 7.07419 15.6111 6.65855 15.2474L4.66149 13.5H18C18.5523 13.5 19 13.0523 19 12.5C19 11.9477 18.5523 11.5 18 11.5H2.00005C1.58344 11.5 1.21048 11.7583 1.06394 12.1483C0.917409 12.5383 1.02801 12.9783 1.34154 13.2526L5.34154 16.7526Z" fill="#6A6E85"/>
</svg>
