<svg width="38" height="12" viewBox="0 0 38 12" fill="none" xmlns="http://www.w3.org/2000/svg">
<g clip-path="url(#clip0_154_6098)">
<path d="M19.1417 3.82091C19.1206 5.48588 20.6255 6.41494 21.7592 6.96737C22.9239 7.53412 23.3151 7.89759 23.3105 8.40448C23.3018 9.18014 22.3814 9.5225 21.5202 9.5358C20.0176 9.55908 19.1439 9.13012 18.4493 8.80568L17.908 11.3386C18.6049 11.6597 19.8953 11.9397 21.2333 11.952C24.3743 11.952 26.4292 10.4015 26.4403 7.99763C26.4526 4.94674 22.2204 4.77788 22.2493 3.41421C22.2593 3.00072 22.6538 2.55947 23.5184 2.44727C23.9464 2.3906 25.1277 2.34723 26.4671 2.964L26.9928 0.513395C26.2725 0.25113 25.3467 -1.90735e-06 24.1942 -1.90735e-06C21.2378 -1.90735e-06 19.1585 1.57156 19.1417 3.82091ZM32.044 0.211082C31.4705 0.211082 30.9872 0.545635 30.7715 1.05903L26.2848 11.772H29.4234L30.048 10.0459H33.8834L34.2457 11.772H37.012L34.598 0.211082H32.044ZM32.4831 3.33412L33.3889 7.67537H30.9082L32.4831 3.33412ZM15.3363 0.211226L12.8623 11.7719H15.8532L18.326 0.210938H15.3363M10.9118 0.210938L7.7987 8.0799L6.53942 1.38925C6.39166 0.642359 5.80814 0.211082 5.16014 0.211082H0.0712771L0 0.546792C1.04472 0.773491 2.23171 1.13913 2.95084 1.53036C3.39094 1.76935 3.51643 1.97826 3.66101 2.54617L6.04612 11.772H9.20675L14.0524 0.211082L10.9118 0.210938Z" fill="url(#paint0_linear_154_6098)"/>
</g>
<defs>
<linearGradient id="paint0_linear_154_6098" x1="1701.59" y1="35.9277" x2="1736.19" y2="-1191.56" gradientUnits="userSpaceOnUse">
<stop stop-color="#222357"/>
<stop offset="1" stop-color="#254AA5"/>
</linearGradient>
<clipPath id="clip0_154_6098">
<rect width="37.012" height="12" fill="white"/>
</clipPath>
</defs>
</svg>
