<svg width="20" height="20" viewBox="0 0 20 20" fill="none" xmlns="http://www.w3.org/2000/svg">
<path d="M6 7C5.44772 7 5 7.44772 5 8C5 8.55228 5.44772 9 6 9H11C11.5523 9 12 8.55228 12 8C12 7.44772 11.5523 7 11 7H6Z" fill="#6A6E85"/>
<path fill-rule="evenodd" clip-rule="evenodd" d="M2 3C1.44772 3 1 3.44772 1 4V16C1 16.5523 1.44772 17 2 17H18C18.5523 17 19 16.5523 19 16V13C19.5523 13 20 12.5523 20 12V8C20 7.44772 19.5523 7 19 7V4C19 3.44772 18.5523 3 18 3H2ZM17 7V5H3V15H17V13C15.3431 13 14 11.6569 14 10C14 8.34315 15.3431 7 17 7ZM17 9H18V11H17C16.4477 11 16 10.5523 16 10C16 9.44772 16.4477 9 17 9Z" fill="#6A6E85"/>
</svg>
