<svg width="20" height="20" viewBox="0 0 20 20" fill="none" xmlns="http://www.w3.org/2000/svg">
<path d="M10 10.7383C10.5092 10.7383 10.7791 10.4027 10.7975 9.83221L10.8896 7.18792C10.8957 7.12081 10.8957 7.04027 10.8957 6.98658C10.8957 6.36913 10.5521 6 10.0061 6C9.45399 6 9.10429 6.36913 9.10429 6.98658C9.10429 7.01193 9.10566 7.04326 9.10711 7.07634C9.10872 7.11328 9.11043 7.15254 9.11043 7.18792L9.20859 9.83221C9.22086 10.4027 9.4908 10.7383 10 10.7383Z" fill="#6A6E85"/>
<path d="M10 14C10.5583 14 11 13.5369 11 12.9463C11 12.3557 10.5583 11.8926 10 11.8926C9.44172 11.8926 9 12.3557 9 12.9463C9 13.5369 9.44172 14 10 14Z" fill="#6A6E85"/>
<path fill-rule="evenodd" clip-rule="evenodd" d="M10.7071 1.29289C10.3166 0.902369 9.68342 0.902369 9.29289 1.29289L1.29289 9.29289C0.902369 9.68342 0.902369 10.3166 1.29289 10.7071L9.29289 18.7071C9.68342 19.0976 10.3166 19.0976 10.7071 18.7071L18.7071 10.7071C19.0976 10.3166 19.0976 9.68342 18.7071 9.29289L10.7071 1.29289ZM10 16.5858L3.41421 10L10 3.41421L16.5858 10L10 16.5858Z" fill="#6A6E85"/>
</svg>
