<svg width="122" height="122" viewBox="0 0 122 122" fill="none" xmlns="http://www.w3.org/2000/svg">
<path fill-rule="evenodd" clip-rule="evenodd" d="M61 122C27.3106 122 0 94.6894 0 61C0 27.3106 27.3106 0 61 0C94.6894 0 122 27.3106 122 61C122 94.6894 94.6894 122 61 122Z" fill="#FDECD1"/>
<g clip-path="url(#clip0_90_2076)">
<path d="M82.042 30C82.042 29.7348 81.9367 29.4804 81.7491 29.2929C81.5616 29.1054 81.3072 29 81.042 29H40.958C40.6928 29 40.4384 29.1054 40.2509 29.2929C40.0634 29.4804 39.958 29.7348 39.958 30C39.958 30.2652 40.0634 30.5196 40.2509 30.7071C40.4384 30.8946 40.6928 31 40.958 31H81.044C81.3089 30.9995 81.5627 30.8939 81.7498 30.7064C81.9369 30.5189 82.042 30.2649 82.042 30ZM80 41.224V34C80 33.7348 79.8947 33.4804 79.7071 33.2929C79.5196 33.1054 79.2652 33 79 33H43.164C42.8988 33 42.6444 33.1054 42.4569 33.2929C42.2694 33.4804 42.164 33.7348 42.164 34V41.224C42.164 51.176 49.78 57.924 54.192 60.996C49.134 64.48 42 71.11 42 80.776V88C42 88.2652 42.1054 88.5196 42.2929 88.7071C42.4804 88.8946 42.7348 89 43 89H79C79.2652 89 79.5196 88.8946 79.7071 88.7071C79.8947 88.5196 80 88.2652 80 88V80.834C80 70.91 72.274 64.104 67.81 61.002C72.868 57.518 80 50.89 80 41.224ZM61 77.38L70.62 87H51.38L61 77.38ZM65.464 60.156C65.321 60.2456 65.2031 60.37 65.1214 60.5177C65.0397 60.6653 64.9969 60.8313 64.9969 61C64.9969 61.1687 65.0397 61.3347 65.1214 61.4823C65.2031 61.63 65.321 61.7544 65.464 61.844C69.234 64.234 78 70.87 78 80.834V87H73.424C73.406 86.978 73.398 86.95 73.378 86.93L62 75.552V74C62 73.7348 61.8947 73.4804 61.7071 73.2929C61.5196 73.1054 61.2652 73 61 73C60.7348 73 60.4804 73.1054 60.2929 73.2929C60.1054 73.4804 60 73.7348 60 74V75.552L48.622 86.93C48.602 86.95 48.594 86.978 48.576 87H44V80.776C44 71.222 51.854 64.814 56.536 61.846C56.6785 61.7558 56.7959 61.631 56.8772 61.4833C56.9586 61.3356 57.0012 61.1697 57.0012 61.001C57.0012 60.8323 56.9586 60.6664 56.8772 60.5187C56.7959 60.371 56.6785 60.2462 56.536 60.156C52.816 57.796 44 51.23 44 41.224V35H78V41.224C78 50.78 70.146 57.186 65.464 60.156Z" fill="#F79E1B"/>
<path d="M71.082 46.9441H51.454C51.278 46.9445 51.1052 46.9912 50.953 47.0795C50.8007 47.1679 50.6745 47.2948 50.5869 47.4475C50.4993 47.6001 50.4535 47.7732 50.454 47.9492C50.4546 48.1252 50.5015 48.298 50.59 48.4501C52.964 52.4921 56.43 54.9661 60.1 57.5881L60.418 57.8141C60.5876 57.9359 60.7912 58.0014 61 58.0014C61.2088 58.0014 61.4124 57.9359 61.582 57.8141C62.106 57.4401 62.634 57.0721 63.162 56.7041C66.44 54.4161 69.83 52.0521 71.944 48.4501C72.0338 48.2983 72.0817 48.1255 72.083 47.9492C72.0842 47.7729 72.0387 47.5994 71.9511 47.4463C71.8635 47.2933 71.737 47.1662 71.5843 47.078C71.4316 46.9898 71.2583 46.9436 71.082 46.9441ZM62.016 55.0621L61.002 55.7721C57.992 53.6221 55.332 51.6881 53.31 48.9421H69.196C67.314 51.3661 64.728 53.1701 62.016 55.0621ZM40.958 93.0001H81.044C81.3092 93.0001 81.5636 92.8947 81.7511 92.7072C81.9387 92.5197 82.044 92.2653 82.044 92.0001C82.044 91.7349 81.9387 91.4805 81.7511 91.293C81.5636 91.1054 81.3092 91.0001 81.044 91.0001H40.958C40.6928 91.0001 40.4384 91.1054 40.2509 91.293C40.0634 91.4805 39.958 91.7349 39.958 92.0001C39.958 92.2653 40.0634 92.5197 40.2509 92.7072C40.4384 92.8947 40.6928 93.0001 40.958 93.0001ZM61 67.0001C60.7348 67.0001 60.4804 67.1055 60.2929 67.293C60.1054 67.4805 60 67.7349 60 68.0001V70.0001C60 70.2653 60.1054 70.5197 60.2929 70.7072C60.4804 70.8947 60.7348 71.0001 61 71.0001C61.2652 71.0001 61.5196 70.8947 61.7071 70.7072C61.8947 70.5197 62 70.2653 62 70.0001V68.0001C62 67.7349 61.8947 67.4805 61.7071 67.293C61.5196 67.1055 61.2652 67.0001 61 67.0001ZM61 61.0001C60.7348 61.0001 60.4804 61.1055 60.2929 61.293C60.1054 61.4805 60 61.7349 60 62.0001V64.0001C60 64.2653 60.1054 64.5197 60.2929 64.7072C60.4804 64.8947 60.7348 65.0001 61 65.0001C61.2652 65.0001 61.5196 64.8947 61.7071 64.7072C61.8947 64.5197 62 64.2653 62 64.0001V62.0001C62 61.7349 61.8947 61.4805 61.7071 61.293C61.5196 61.1055 61.2652 61.0001 61 61.0001Z" fill="#F79E1B"/>
</g>
<defs>
<clipPath id="clip0_90_2076">
<rect width="42" height="64" fill="white" transform="translate(40 29)"/>
</clipPath>
</defs>
</svg>
