<svg width="28" height="28" viewBox="0 0 28 28" fill="none" xmlns="http://www.w3.org/2000/svg">
<path fill-rule="evenodd" clip-rule="evenodd" d="M17.889 8.17971C16.7378 7.41055 15.3845 7 14 7V0C16.7689 0 19.4757 0.821086 21.778 2.35943C24.0803 3.89776 25.8747 6.08427 26.9343 8.64241C27.9939 11.2006 28.2712 14.0155 27.731 16.7313C27.1908 19.447 25.8574 21.9416 23.8995 23.8995C21.9416 25.8574 19.447 27.1908 16.7313 27.731C14.0155 28.2712 11.2006 27.9939 8.64241 26.9343C6.08426 25.8747 3.89776 24.0803 2.35943 21.778C0.821086 19.4757 0 16.7689 0 14H7C7 15.3845 7.41055 16.7378 8.17971 17.889C8.94887 19.0401 10.0421 19.9373 11.3212 20.4672C12.6003 20.997 14.0078 21.1356 15.3656 20.8655C16.7235 20.5954 17.9708 19.9287 18.9498 18.9498C19.9287 17.9708 20.5954 16.7235 20.8655 15.3656C21.1356 14.0078 20.997 12.6003 20.4672 11.3212C19.9373 10.0421 19.0401 8.94887 17.889 8.17971Z" fill="#425EFF"/>
</svg>