<svg width="148" height="28" viewBox="0 0 148 28" fill="none" xmlns="http://www.w3.org/2000/svg">
<g clip-path="url(#clip0_274_7678)">
<path fill-rule="evenodd" clip-rule="evenodd" d="M17.889 8.17971C16.7378 7.41055 15.3845 7 14 7V0C16.7689 0 19.4757 0.821086 21.778 2.35943C24.0803 3.89776 25.8747 6.08427 26.9343 8.64241C27.9939 11.2006 28.2712 14.0155 27.731 16.7313C27.1908 19.447 25.8574 21.9416 23.8995 23.8995C21.9416 25.8574 19.447 27.1908 16.7313 27.731C14.0155 28.2712 11.2006 27.9939 8.64241 26.9343C6.08426 25.8747 3.89776 24.0803 2.35943 21.778C0.821086 19.4757 0 16.7689 0 14H7C7 15.3845 7.41055 16.7378 8.17971 17.889C8.94887 19.0401 10.0421 19.9373 11.3212 20.4672C12.6003 20.997 14.0078 21.1356 15.3656 20.8655C16.7235 20.5954 17.9708 19.9287 18.9498 18.9498C19.9287 17.9708 20.5954 16.7235 20.8655 15.3656C21.1356 14.0078 20.997 12.6003 20.4672 11.3212C19.9373 10.0421 19.0401 8.94887 17.889 8.17971Z" fill="#425EFF"/>
<path fill-rule="evenodd" clip-rule="evenodd" d="M7 3.69945e-06C7 0.919257 6.81894 1.82951 6.46716 2.67879C6.11537 3.52807 5.59976 4.29974 4.94975 4.94975C4.29974 5.59976 3.52807 6.11538 2.67878 6.46716C1.8295 6.81894 0.91925 7 3.05977e-07 7L0 14C1.8385 14 3.65901 13.6379 5.35757 12.9343C7.05614 12.2308 8.5995 11.1995 9.89947 9.89947C11.1995 8.5995 12.2307 7.05614 12.9343 5.35757C13.6379 3.65901 14 1.8385 14 0L7 3.69945e-06Z" fill="#425EFF"/>
<path d="M93.9335 10.1168H90.5371V20.9054H93.9335V10.1168Z" fill="#425EFF"/>
<path d="M90.9153 8.09664C91.2702 8.45182 91.714 8.62941 92.2467 8.62941C92.7794 8.62941 93.2162 8.45182 93.5564 8.09664C93.8973 7.72669 94.0674 7.28268 94.0674 6.76472C94.0674 6.23196 93.8973 5.78797 93.5564 5.4328C93.2162 5.07761 92.7794 4.90002 92.2467 4.90002C91.714 4.90002 91.2702 5.07761 90.9153 5.4328C90.5744 5.78797 90.4043 6.23196 90.4043 6.76472C90.4043 7.28268 90.5744 7.72669 90.9153 8.09664Z" fill="#425EFF"/>
<path d="M41.8096 20.9054V5.23297H45.2948V17.8419H52.2431V20.9054H41.8096Z" fill="#425EFF"/>
<path fill-rule="evenodd" clip-rule="evenodd" d="M58.5191 21.1495C57.4092 21.1495 56.4029 20.9053 55.5001 20.4169C54.6121 19.9138 53.9092 19.233 53.3912 18.3746C52.8733 17.5163 52.6143 16.5543 52.6143 15.4888C52.6143 14.4233 52.8733 13.4687 53.3912 12.6252C53.9092 11.7816 54.6121 11.1156 55.5001 10.6273C56.388 10.1241 57.3944 9.8725 58.5191 9.8725C59.6439 9.8725 60.6502 10.1167 61.5381 10.605C62.4261 11.0934 63.1291 11.7668 63.647 12.6252C64.165 13.4687 64.424 14.4233 64.424 15.4888C64.424 16.5543 64.165 17.5163 63.647 18.3746C63.1291 19.233 62.4261 19.9138 61.5381 20.4169C60.6502 20.9053 59.6439 21.1495 58.5191 21.1495ZM58.5191 18.0639C59.0075 18.0639 59.4367 17.9603 59.8067 17.7531C60.1766 17.5311 60.4578 17.2277 60.6502 16.843C60.8574 16.4434 60.961 15.992 60.961 15.4888C60.961 14.9856 60.8574 14.5491 60.6502 14.1791C60.443 13.7943 60.1544 13.4984 59.7844 13.2912C59.4292 13.0691 59.0075 12.9582 58.5191 12.9582C58.0456 12.9582 57.6238 13.0691 57.2538 13.2912C56.8838 13.4984 56.5952 13.7943 56.388 14.1791C56.1808 14.5639 56.0773 15.0078 56.0773 15.511C56.0773 15.9994 56.1808 16.4434 56.388 16.843C56.5952 17.2277 56.8838 17.5311 57.2538 17.7531C57.6238 17.9603 58.0456 18.0639 58.5191 18.0639Z" fill="#425EFF"/>
<path fill-rule="evenodd" clip-rule="evenodd" d="M67.1142 25.1231C68.0169 25.5375 69.0603 25.7447 70.2443 25.7447C71.3986 25.7447 72.4271 25.5153 73.3299 25.0565C74.2326 24.5977 74.9429 23.9614 75.4609 23.1475C75.9789 22.3335 76.2382 21.3716 76.2382 20.2616V10.1168H72.908V10.8416C72.6604 10.6331 72.3791 10.4581 72.0645 10.3165C71.4873 10.0353 70.8288 9.89471 70.0889 9.89471C69.0973 9.89471 68.2167 10.1315 67.4472 10.6051C66.6775 11.0639 66.0709 11.7002 65.6268 12.5142C65.1828 13.3134 64.9609 14.2161 64.9609 15.2225C64.9609 16.214 65.1828 17.1168 65.6268 17.9307C66.0709 18.7447 66.6775 19.3885 67.4472 19.862C68.2167 20.3356 69.0973 20.5724 70.0889 20.5724C70.814 20.5724 71.4725 20.4318 72.0645 20.1506C72.3513 20.0144 72.6103 19.8539 72.8415 19.669V20.3504C72.8415 21.1051 72.5973 21.6897 72.1089 22.1041C71.6354 22.5185 70.9768 22.7256 70.1332 22.7256C69.4525 22.7256 68.8679 22.6073 68.3795 22.3705C67.906 22.1337 67.4767 21.7859 67.0919 21.3271L65.0053 23.4138C65.5232 24.1538 66.2263 24.7236 67.1142 25.1231ZM71.9535 17.2425C71.6131 17.4497 71.2062 17.5533 70.7326 17.5533C70.259 17.5533 69.8446 17.4497 69.4894 17.2425C69.149 17.0353 68.8827 16.7542 68.6903 16.399C68.4979 16.029 68.4017 15.6368 68.4017 15.2225C68.4017 14.7785 68.4979 14.3789 68.6903 14.0237C68.8827 13.6686 69.1565 13.3874 69.5116 13.1802C69.8668 12.973 70.2738 12.8694 70.7326 12.8694C71.2062 12.8694 71.6131 12.973 71.9535 13.1802C72.3087 13.3874 72.575 13.6686 72.7527 14.0237C72.9451 14.3789 73.0413 14.7785 73.0413 15.2225C73.0413 15.6664 72.9451 16.066 72.7527 16.4212C72.575 16.7616 72.3087 17.0353 71.9535 17.2425Z" fill="#425EFF"/>
<path fill-rule="evenodd" clip-rule="evenodd" d="M83.3857 21.1495C82.2755 21.1495 81.2689 20.9053 80.3666 20.4169C79.4783 19.9138 78.7755 19.233 78.2575 18.3746C77.7395 17.5163 77.4805 16.5543 77.4805 15.4888C77.4805 14.4233 77.7395 13.4687 78.2575 12.6252C78.7755 11.7816 79.4783 11.1156 80.3666 10.6273C81.2542 10.1241 82.2608 9.8725 83.3857 9.8725C84.5099 9.8725 85.5165 10.1167 86.4041 10.605C87.2924 11.0934 87.9952 11.7668 88.5132 12.6252C89.0312 13.4687 89.2902 14.4233 89.2902 15.4888C89.2902 16.5543 89.0312 17.5163 88.5132 18.3746C87.9952 19.233 87.2924 19.9138 86.4041 20.4169C85.5165 20.9053 84.5099 21.1495 83.3857 21.1495ZM83.3857 18.0639C83.8736 18.0639 84.3027 17.9603 84.673 17.7531C85.0426 17.5311 85.324 17.2277 85.5165 16.843C85.7237 16.4434 85.8273 15.992 85.8273 15.4888C85.8273 14.9856 85.7237 14.5491 85.5165 14.1791C85.3093 13.7943 85.0209 13.4984 84.6506 13.2912C84.2957 13.0691 83.8736 12.9582 83.3857 12.9582C82.9118 12.9582 82.4897 13.0691 82.1201 13.2912C81.7498 13.4984 81.4614 13.7943 81.2542 14.1791C81.047 14.5639 80.9434 15.0078 80.9434 15.511C80.9434 15.9994 81.047 16.4434 81.2542 16.843C81.4614 17.2277 81.7498 17.5311 82.1201 17.7531C82.4897 17.9603 82.9118 18.0639 83.3857 18.0639Z" fill="#425EFF"/>
<path fill-rule="evenodd" clip-rule="evenodd" d="M102.097 21.1273C101.373 21.1273 100.706 20.9868 100.099 20.7056C99.7801 20.5576 99.4917 20.3809 99.2341 20.1755V25.4561H95.8818V10.1168H99.2782V10.8613C99.5246 10.6598 99.7983 10.4856 100.099 10.3387C100.706 10.0427 101.373 9.89471 102.097 9.89471C103.118 9.89471 104.021 10.1389 104.805 10.6273C105.605 11.1157 106.226 11.7816 106.67 12.6252C107.129 13.4688 107.358 14.4307 107.358 15.511C107.358 16.5914 107.129 17.5533 106.67 18.3969C106.226 19.2405 105.605 19.9064 104.805 20.3948C104.021 20.8832 103.118 21.1273 102.097 21.1273ZM101.476 18.0639C101.964 18.0639 102.386 17.9529 102.741 17.7309C103.111 17.509 103.4 17.2055 103.607 16.8208C103.814 16.436 103.918 15.9994 103.918 15.511C103.918 15.0079 103.814 14.5639 103.607 14.1791C103.4 13.7943 103.111 13.4984 102.741 13.2912C102.386 13.0691 101.972 12.9582 101.498 12.9582C101.025 12.9582 100.603 13.0691 100.233 13.2912C99.8774 13.4984 99.5967 13.7943 99.3895 14.1791C99.1823 14.5639 99.0787 15.0079 99.0787 15.511C99.0787 15.9994 99.1746 16.436 99.3671 16.8208C99.5743 17.2055 99.8627 17.509 100.233 17.7309C100.603 17.9529 101.017 18.0639 101.476 18.0639Z" fill="#425EFF"/>
<path d="M110.682 20.9276C111.304 21.0904 111.932 21.1717 112.569 21.1717C113.915 21.1717 114.981 20.861 115.766 20.2394C116.564 19.6179 116.964 18.7817 116.964 17.7309C116.964 17.0502 116.839 16.5026 116.587 16.0883C116.335 15.6591 116.01 15.3187 115.61 15.0671C115.21 14.8155 114.788 14.6157 114.345 14.4677C113.901 14.3197 113.479 14.1939 113.08 14.0903C112.68 13.9867 112.354 13.8683 112.102 13.7351C111.851 13.6019 111.725 13.4243 111.725 13.2024C111.725 12.9952 111.822 12.8398 112.014 12.7362C112.206 12.6178 112.494 12.5586 112.879 12.5586C113.279 12.5586 113.686 12.64 114.1 12.8028C114.529 12.9656 114.914 13.2468 115.255 13.6464L117.186 11.6929C116.698 11.0713 116.062 10.6051 115.277 10.2944C114.508 9.96879 113.664 9.80597 112.746 9.80597C111.874 9.80597 111.111 9.95395 110.46 10.2499C109.809 10.5459 109.305 10.9529 108.95 11.4708C108.595 11.974 108.418 12.5734 108.418 13.269C108.418 13.9201 108.544 14.4603 108.795 14.8895C109.046 15.3038 109.372 15.6295 109.771 15.8662C110.171 16.103 110.593 16.288 111.037 16.4212C111.481 16.5544 111.903 16.6802 112.303 16.7986C112.702 16.9022 113.028 17.028 113.279 17.176C113.546 17.3092 113.679 17.509 113.679 17.7753C113.679 17.9825 113.568 18.1453 113.346 18.2637C113.138 18.3821 112.835 18.4413 112.436 18.4413C111.858 18.4413 111.325 18.3377 110.838 18.1305C110.349 17.9085 109.927 17.6052 109.572 17.2204L107.641 19.1739C108.011 19.5734 108.455 19.9287 108.973 20.2394C109.505 20.5354 110.075 20.7647 110.682 20.9276Z" fill="#425EFF"/>
<path d="M123.158 21.1495C122.166 21.1495 121.286 20.9497 120.517 20.5502C119.761 20.1358 119.17 19.5734 118.741 18.863C118.311 18.1379 118.097 17.3092 118.097 16.3768V10.1168H121.493V16.3324C121.493 16.7024 121.552 17.0206 121.671 17.2869C121.804 17.5533 121.996 17.7605 122.248 17.9085C122.5 18.0565 122.803 18.1305 123.158 18.1305C123.661 18.1305 124.061 17.9751 124.357 17.6643C124.653 17.3387 124.801 16.8948 124.801 16.3324V10.1168H128.197V16.3546C128.197 17.3018 127.983 18.1379 127.553 18.863C127.124 19.5734 126.532 20.1358 125.777 20.5502C125.022 20.9497 124.15 21.1495 123.158 21.1495Z" fill="#425EFF"/>
<path d="M133.282 10.1168H129.886V20.9054H133.282V14.6009C133.282 14.2309 133.356 13.9201 133.504 13.6686C133.667 13.417 133.882 13.2245 134.148 13.0914C134.415 12.9434 134.718 12.8694 135.058 12.8694C135.547 12.8694 135.953 13.0248 136.279 13.3356C136.62 13.6315 136.79 14.0533 136.79 14.6009V20.9054H140.186V14.6009C140.186 14.2309 140.26 13.9201 140.408 13.6686C140.571 13.417 140.785 13.2245 141.052 13.0914C141.318 12.9434 141.622 12.8694 141.962 12.8694C142.451 12.8694 142.857 13.0248 143.183 13.3356C143.523 13.6315 143.693 14.0533 143.693 14.6009V20.9054H147.09V14.2235C147.09 13.3208 146.898 12.5512 146.513 11.9148C146.143 11.2636 145.632 10.7679 144.981 10.4276C144.345 10.0723 143.612 9.89471 142.783 9.89471C141.94 9.89471 141.177 10.0797 140.497 10.4497C140.055 10.6854 139.668 10.9897 139.337 11.3623C139.028 10.9725 138.653 10.6535 138.21 10.4053C137.619 10.065 136.945 9.89471 136.191 9.89471C135.391 9.89471 134.674 10.065 134.037 10.4053C133.76 10.5469 133.509 10.7165 133.282 10.9141V10.1168Z" fill="#425EFF"/>
</g>
<defs>
<clipPath id="clip0_274_7678">
<rect width="148" height="28" fill="white"/>
</clipPath>
</defs>
</svg>
